<svg width="32" height="32" viewBox="0 0 32 32" fill="none" xmlns="http://www.w3.org/2000/svg">
<g clip-path="url(#clip0_3385_59524)">
<path d="M16.0003 2.66669C8.65366 2.66669 2.66699 8.65335 2.66699 16C2.66699 23.3467 8.65366 29.3334 16.0003 29.3334C23.347 29.3334 29.3337 23.3467 29.3337 16C29.3337 8.65335 23.347 2.66669 16.0003 2.66669ZM18.387 20C18.7737 20.3867 18.7737 21.0267 18.387 21.4134C18.187 21.6134 17.9337 21.7067 17.6803 21.7067C17.427 21.7067 17.1737 21.6134 16.9737 21.4134L12.267 16.7067C11.8803 16.32 11.8803 15.68 12.267 15.2934L16.9737 10.5867C17.3603 10.2 18.0003 10.2 18.387 10.5867C18.7737 10.9734 18.7737 11.6134 18.387 12L14.387 16L18.387 20Z" fill="#9E9E9E"/>
</g>
<defs>
<clipPath id="clip0_3385_59524">
<rect width="32" height="32" rx="16" fill="white"/>
</clipPath>
</defs>
</svg>
