<svg xmlns="http://www.w3.org/2000/svg" width="38" height="39" fill="none" viewBox="0 0 38 39">
  <g filter="url(#a)">
    <path fill="#fff" d="M19 24.667A5.68 5.68 0 0 1 13.335 19c0-.547.453-1 1-1 .547 0 1 .453 1 1a3.665 3.665 0 0 0 3.667 3.667A3.665 3.665 0 0 0 22.667 19c0-.547.454-1 1-1 .547 0 1 .453 1 1a5.679 5.679 0 0 1-5.666 5.667ZM9.92 8.507a1.02 1.02 0 0 1-.706-.294 1.006 1.006 0 0 1 0-1.413l4.84-4.84a1.006 1.006 0 0 1 1.413 0 1.006 1.006 0 0 1 0 1.413l-4.84 4.84c-.2.187-.453.294-.707.294Zm18.16 0a.99.99 0 0 1-.706-.294l-4.84-4.84a1.006 1.006 0 0 1 0-1.413 1.006 1.006 0 0 1 1.414 0l4.84 4.84a1.006 1.006 0 0 1 0 1.413 1.023 1.023 0 0 1-.707.294Z"/>
    <path fill="#fff" d="M29.946 14.133H8.333c-.934.014-2 .014-2.774-.76-.613-.6-.893-1.533-.893-2.906 0-3.667 2.68-3.667 3.96-3.667h20.747c1.28 0 3.96 0 3.96 3.667 0 1.386-.28 2.306-.894 2.906-.693.694-1.626.76-2.493.76Zm-21.32-2h21.053c.6.014 1.16.014 1.347-.173.093-.093.293-.413.293-1.493 0-1.507-.373-1.667-1.96-1.667H8.626c-1.587 0-1.96.16-1.96 1.667 0 1.08.213 1.4.293 1.493.187.173.76.173 1.347.173h.32Z"/>
    <path fill="#fff" d="M22.854 30.333h-8.04c-4.774 0-5.84-2.84-6.254-5.306L6.68 13.493a.996.996 0 0 1 .827-1.146 1.003 1.003 0 0 1 1.147.826l1.88 11.52c.386 2.36 1.186 3.64 4.28 3.64h8.04c3.426 0 3.813-1.2 4.253-3.52l2.24-11.666a.983.983 0 0 1 1.173-.787.992.992 0 0 1 .787 1.173L29.067 25.2c-.52 2.707-1.387 5.133-6.213 5.133Z"/>
  </g>
  <defs>
    <filter id="a" width="36.666" height="36.663" x=".666" y="1.67" color-interpolation-filters="sRGB" filterUnits="userSpaceOnUse">
      <feFlood flood-opacity="0" result="BackgroundImageFix"/>
      <feColorMatrix in="SourceAlpha" result="hardAlpha" values="0 0 0 0 0 0 0 0 0 0 0 0 0 0 0 0 0 0 127 0"/>
      <feOffset dy="4"/>
      <feGaussianBlur stdDeviation="2"/>
      <feComposite in2="hardAlpha" operator="out"/>
      <feColorMatrix values="0 0 0 0 0 0 0 0 0 0 0 0 0 0 0 0 0 0 0.25 0"/>
      <feBlend in2="BackgroundImageFix" result="effect1_dropShadow_4841_6520"/>
      <feBlend in="SourceGraphic" in2="effect1_dropShadow_4841_6520" result="shape"/>
    </filter>
  </defs>
</svg>
