<svg width="72" height="72" viewBox="0 0 72 72" fill="none" xmlns="http://www.w3.org/2000/svg">
<rect x="1.5" y="1.5" width="69" height="69" rx="34.5" stroke="#0C68F4" stroke-width="3"/>
<path d="M36 49C31.32 49 27.5 45.18 27.5 40.5C27.5 39.68 28.18 39 29 39C29.82 39 30.5 39.68 30.5 40.5C30.5 43.54 32.96 46 36 46C39.04 46 41.5 43.54 41.5 40.5C41.5 39.68 42.18 39 43 39C43.82 39 44.5 39.68 44.5 40.5C44.5 45.18 40.68 49 36 49Z" fill="#0C68F4"/>
<path d="M22.3798 24.7599C21.9998 24.7599 21.5998 24.5999 21.3198 24.3199C20.7398 23.7399 20.7398 22.7799 21.3198 22.1999L28.5798 14.9399C29.1598 14.3599 30.1198 14.3599 30.6998 14.9399C31.2798 15.5199 31.2798 16.4799 30.6998 17.0599L23.4398 24.3199C23.1398 24.5999 22.7598 24.7599 22.3798 24.7599Z" fill="#0C68F4"/>
<path d="M49.6202 24.7599C49.2402 24.7599 48.8602 24.6199 48.5602 24.3199L41.3002 17.0599C40.7202 16.4799 40.7202 15.5199 41.3002 14.9399C41.8802 14.3599 42.8402 14.3599 43.4202 14.9399L50.6802 22.1999C51.2602 22.7799 51.2602 23.7399 50.6802 24.3199C50.4002 24.5999 50.0002 24.7599 49.6202 24.7599Z" fill="#0C68F4"/>
<path d="M52.42 33.2C52.28 33.2 52.14 33.2 52 33.2H51.54H20C18.6 33.22 17 33.22 15.84 32.06C14.92 31.16 14.5 29.76 14.5 27.7C14.5 22.2 18.52 22.2 20.44 22.2H51.56C53.48 22.2 57.5 22.2 57.5 27.7C57.5 29.78 57.08 31.16 56.16 32.06C55.12 33.1 53.72 33.2 52.42 33.2ZM20.44 30.2H52.02C52.92 30.22 53.76 30.22 54.04 29.94C54.18 29.8 54.48 29.32 54.48 27.7C54.48 25.44 53.92 25.2 51.54 25.2H20.44C18.06 25.2 17.5 25.44 17.5 27.7C17.5 29.32 17.82 29.8 17.94 29.94C18.22 30.2 19.08 30.2 19.96 30.2H20.44Z" fill="#0C68F4"/>
<path d="M41.7795 57.5H29.7195C22.5595 57.5 20.9595 53.24 20.3395 49.54L17.5195 32.24C17.3795 31.42 17.9395 30.66 18.7595 30.52C19.5595 30.38 20.3395 30.94 20.4795 31.76L23.2995 49.04C23.8795 52.58 25.0795 54.5 29.7195 54.5H41.7795C46.9195 54.5 47.4995 52.7 48.1595 49.22L51.5195 31.72C51.6795 30.9 52.4595 30.36 53.2795 30.54C54.0995 30.7 54.6195 31.48 54.4595 32.3L51.0995 49.8C50.3195 53.86 49.0195 57.5 41.7795 57.5Z" fill="#0C68F4"/>
</svg>
