<svg width="72" height="72" viewBox="0 0 72 72" fill="none" xmlns="http://www.w3.org/2000/svg">
<rect x="1.5" y="1.5" width="69" height="69" rx="34.5" stroke="#0C68F4" stroke-width="3"/>
<path d="M38 41.5H16C15.18 41.5 14.5 40.82 14.5 40V24C14.5 18.76 18.76 14.5 24 14.5H42C42.82 14.5 43.5 15.18 43.5 16V36C43.5 39.04 41.04 41.5 38 41.5ZM17.5 38.5H38C39.38 38.5 40.5 37.38 40.5 36V17.5H24C20.42 17.5 17.5 20.42 17.5 24V38.5Z" fill="#0C68F4"/>
<path d="M50 53.5H48C47.18 53.5 46.5 52.82 46.5 52C46.5 50.62 45.38 49.5 44 49.5C42.62 49.5 41.5 50.62 41.5 52C41.5 52.82 40.82 53.5 40 53.5H32C31.18 53.5 30.5 52.82 30.5 52C30.5 50.62 29.38 49.5 28 49.5C26.62 49.5 25.5 50.62 25.5 52C25.5 52.82 24.82 53.5 24 53.5H22C17.86 53.5 14.5 50.14 14.5 46V40C14.5 39.18 15.18 38.5 16 38.5H38C39.38 38.5 40.5 37.38 40.5 36V22C40.5 21.18 41.18 20.5 42 20.5H45.68C47.66 20.5 49.48 21.56 50.46 23.28L53.88 29.26C54.14 29.72 54.14 30.3 53.88 30.76C53.62 31.22 53.12 31.5 52.58 31.5H50C49.72 31.5 49.5 31.72 49.5 32V38C49.5 38.28 49.72 38.5 50 38.5H56C56.82 38.5 57.5 39.18 57.5 40V46C57.5 50.14 54.14 53.5 50 53.5ZM49.3 50.5H50C52.48 50.5 54.5 48.48 54.5 46V41.5H50C48.08 41.5 46.5 39.92 46.5 38V32C46.5 30.08 48.06 28.5 50 28.5L47.86 24.76C47.42 23.98 46.58 23.5 45.68 23.5H43.5V36C43.5 39.04 41.04 41.5 38 41.5H17.5V46C17.5 48.48 19.52 50.5 22 50.5H22.7C23.36 48.2 25.48 46.5 28 46.5C30.52 46.5 32.64 48.2 33.3 50.5H38.72C39.38 48.2 41.5 46.5 44.02 46.5C46.54 46.5 48.64 48.2 49.3 50.5Z" fill="#0C68F4"/>
<path d="M28 57.5C24.96 57.5 22.5 55.04 22.5 52C22.5 48.96 24.96 46.5 28 46.5C31.04 46.5 33.5 48.96 33.5 52C33.5 55.04 31.04 57.5 28 57.5ZM28 49.5C26.62 49.5 25.5 50.62 25.5 52C25.5 53.38 26.62 54.5 28 54.5C29.38 54.5 30.5 53.38 30.5 52C30.5 50.62 29.38 49.5 28 49.5Z" fill="#0C68F4"/>
<path d="M44 57.5C40.96 57.5 38.5 55.04 38.5 52C38.5 48.96 40.96 46.5 44 46.5C47.04 46.5 49.5 48.96 49.5 52C49.5 55.04 47.04 57.5 44 57.5ZM44 49.5C42.62 49.5 41.5 50.62 41.5 52C41.5 53.38 42.62 54.5 44 54.5C45.38 54.5 46.5 53.38 46.5 52C46.5 50.62 45.38 49.5 44 49.5Z" fill="#0C68F4"/>
<path d="M56 41.5H50C48.08 41.5 46.5 39.92 46.5 38V32C46.5 30.08 48.08 28.5 50 28.5H52.58C53.12 28.5 53.62 28.78 53.88 29.26L57.3 35.26C57.42 35.48 57.5 35.74 57.5 36V40C57.5 40.82 56.82 41.5 56 41.5ZM50 31.5C49.72 31.5 49.5 31.72 49.5 32V38C49.5 38.28 49.72 38.5 50 38.5H54.5V36.4L51.7 31.5H50Z" fill="#0C68F4"/>
</svg>
