<svg width="72" height="72" viewBox="0 0 72 72" fill="none" xmlns="http://www.w3.org/2000/svg">
<rect x="1.5" y="1.5" width="69" height="69" rx="34.5" stroke="#0C68F4" stroke-width="3"/>
<path d="M56 30.5H16C15.18 30.5 14.5 29.82 14.5 29C14.5 28.18 15.18 27.5 16 27.5H56C56.82 27.5 57.5 28.18 57.5 29C57.5 29.82 56.82 30.5 56 30.5Z" fill="#0C68F4"/>
<path d="M28 46.5H24C23.18 46.5 22.5 45.82 22.5 45C22.5 44.18 23.18 43.5 24 43.5H28C28.82 43.5 29.5 44.18 29.5 45C29.5 45.82 28.82 46.5 28 46.5Z" fill="#0C68F4"/>
<path d="M41 46.5H33C32.18 46.5 31.5 45.82 31.5 45C31.5 44.18 32.18 43.5 33 43.5H41C41.82 43.5 42.5 44.18 42.5 45C42.5 45.82 41.82 46.5 41 46.5Z" fill="#0C68F4"/>
<path d="M47.12 54.5H24.88C16.92 54.5 14.5 52.1 14.5 44.22V27.78C14.5 19.9 16.92 17.5 24.88 17.5H47.1C55.06 17.5 57.48 19.9 57.48 27.78V44.2C57.5 52.1 55.08 54.5 47.12 54.5ZM24.88 20.5C18.6 20.5 17.5 21.58 17.5 27.78V44.2C17.5 50.4 18.6 51.48 24.88 51.48H47.1C53.38 51.48 54.48 50.4 54.48 44.2V27.78C54.48 21.58 53.38 20.5 47.1 20.5H24.88Z" fill="#0C68F4"/>
</svg>
