<svg width="24" height="24" viewBox="0 0 24 24" fill="none" xmlns="http://www.w3.org/2000/svg">
<path d="M5.19086 6.37994C5.00086 6.37994 4.80086 6.29994 4.66086 6.15994C4.37086 5.86994 4.37086 5.38994 4.66086 5.09994L8.29086 1.46994C8.58086 1.17994 9.06086 1.17994 9.35086 1.46994C9.64086 1.75994 9.64086 2.23994 9.35086 2.52994L5.72086 6.15994C5.57086 6.29994 5.38086 6.37994 5.19086 6.37994Z" fill="#444444"/>
<path d="M18.8091 6.37994C18.6191 6.37994 18.4291 6.30994 18.2791 6.15994L14.6491 2.52994C14.3591 2.23994 14.3591 1.75994 14.6491 1.46994C14.9391 1.17994 15.4191 1.17994 15.7091 1.46994L19.3391 5.09994C19.6291 5.38994 19.6291 5.86994 19.3391 6.15994C19.1991 6.29994 18.9991 6.37994 18.8091 6.37994Z" fill="#444444"/>
<path d="M20.21 10.6C20.14 10.6 20.07 10.6 20 10.6H19.77H4C3.3 10.61 2.5 10.61 1.92 10.03C1.46 9.57998 1.25 8.87998 1.25 7.84998C1.25 5.09998 3.26 5.09998 4.22 5.09998H19.78C20.74 5.09998 22.75 5.09998 22.75 7.84998C22.75 8.88998 22.54 9.57998 22.08 10.03C21.56 10.55 20.86 10.6 20.21 10.6ZM4.22 9.09998H20.01C20.46 9.10998 20.88 9.10998 21.02 8.96998C21.09 8.89998 21.24 8.65998 21.24 7.84998C21.24 6.71998 20.96 6.59998 19.77 6.59998H4.22C3.03 6.59998 2.75 6.71998 2.75 7.84998C2.75 8.65998 2.91 8.89998 2.97 8.96998C3.11 9.09998 3.54 9.09998 3.98 9.09998H4.22Z" fill="#444444"/>
<path d="M9.75977 18.3C9.34977 18.3 9.00977 17.96 9.00977 17.55V14C9.00977 13.59 9.34977 13.25 9.75977 13.25C10.1698 13.25 10.5098 13.59 10.5098 14V17.55C10.5098 17.97 10.1698 18.3 9.75977 18.3Z" fill="#444444"/>
<path d="M14.3594 18.3C13.9494 18.3 13.6094 17.96 13.6094 17.55V14C13.6094 13.59 13.9494 13.25 14.3594 13.25C14.7694 13.25 15.1094 13.59 15.1094 14V17.55C15.1094 17.97 14.7694 18.3 14.3594 18.3Z" fill="#0C0C0C"/>
<path d="M14.8907 22.75H8.86073C5.28073 22.75 4.48073 20.62 4.17073 18.77L2.76073 10.12C2.69073 9.71 2.97073 9.33 3.38073 9.26C3.79073 9.19 4.17073 9.47 4.24073 9.88L5.65073 18.52C5.94073 20.29 6.54073 21.25 8.86073 21.25H14.8907C17.4607 21.25 17.7507 20.35 18.0807 18.61L19.7607 9.86C19.8407 9.45 20.2307 9.18 20.6407 9.27C21.0507 9.35 21.3107 9.74 21.2307 10.15L19.5507 18.9C19.1607 20.93 18.5107 22.75 14.8907 22.75Z" fill="#0C0C0C"/>
</svg>
