<svg width="25" height="24" viewBox="0 0 25 24" fill="none" xmlns="http://www.w3.org/2000/svg">
<path d="M13.9002 17.42H11.3902C9.75016 17.42 8.42016 16.04 8.42016 14.34C8.42016 13.93 8.76016 13.59 9.17016 13.59C9.58016 13.59 9.92016 13.93 9.92016 14.34C9.92016 15.21 10.5802 15.92 11.3902 15.92H13.9002C14.5502 15.92 15.0902 15.34 15.0902 14.64C15.0902 13.77 14.7802 13.6 14.2702 13.42L10.2402 12C9.46016 11.73 8.41016 11.15 8.41016 9.35996C8.41016 7.81996 9.62016 6.57996 11.1002 6.57996H13.6102C15.2502 6.57996 16.5802 7.95996 16.5802 9.65996C16.5802 10.07 16.2402 10.41 15.8302 10.41C15.4202 10.41 15.0802 10.07 15.0802 9.65996C15.0802 8.78996 14.4202 8.07996 13.6102 8.07996H11.1002C10.4502 8.07996 9.91016 8.65996 9.91016 9.35996C9.91016 10.23 10.2202 10.4 10.7302 10.58L14.7602 12C15.5402 12.27 16.5902 12.85 16.5902 14.64C16.5802 16.17 15.3802 17.42 13.9002 17.42Z" fill="#444444"/>
<path d="M12.5 18.75C12.09 18.75 11.75 18.41 11.75 18V6C11.75 5.59 12.09 5.25 12.5 5.25C12.91 5.25 13.25 5.59 13.25 6V18C13.25 18.41 12.91 18.75 12.5 18.75Z" fill="#444444"/>
<path d="M12.5 22.75C6.57 22.75 1.75 17.93 1.75 12C1.75 6.07 6.57 1.25 12.5 1.25C18.43 1.25 23.25 6.07 23.25 12C23.25 17.93 18.43 22.75 12.5 22.75ZM12.5 2.75C7.4 2.75 3.25 6.9 3.25 12C3.25 17.1 7.4 21.25 12.5 21.25C17.6 21.25 21.75 17.1 21.75 12C21.75 6.9 17.6 2.75 12.5 2.75Z" fill="#444444"/>
</svg>
