<svg width="32" height="32" viewBox="0 0 32 32" fill="none" xmlns="http://www.w3.org/2000/svg">
<path fill-rule="evenodd" clip-rule="evenodd" d="M24 5.33329H7.99996C6.5272 5.33329 5.33329 6.5272 5.33329 7.99996V24C5.33329 25.4728 6.5272 26.6666 7.99996 26.6666H24C25.4728 26.6666 26.6666 25.4728 26.6666 24V7.99996C26.6666 6.5272 25.4728 5.33329 24 5.33329ZM7.99996 2.66663C5.05444 2.66663 2.66663 5.05444 2.66663 7.99996V24C2.66663 26.9454 5.05444 29.3333 7.99996 29.3333H24C26.9454 29.3333 29.3333 26.9454 29.3333 24V7.99996C29.3333 5.05444 26.9454 2.66663 24 2.66663H7.99996Z" fill="white"/>
<path fill-rule="evenodd" clip-rule="evenodd" d="M15.889 13.3334C15.889 11.1242 17.6798 9.33337 19.889 9.33337H22.6667V12H19.889C19.1526 12 18.5556 12.597 18.5556 13.3334V16H22.6667V18.6667H18.5556V26.6667H15.889V18.6667H13.3334V16H15.889V13.3334Z" fill="white"/>
</svg>
