<svg width="20" height="20" viewBox="0 0 20 20" fill="none" xmlns="http://www.w3.org/2000/svg">
<path d="M19.7402 9.07001C19.6902 8.56001 19.2602 8.17999 18.7502 8.17999H11.2002C10.6502 8.17999 10.2002 8.62999 10.2002 9.17999V10.89C10.2002 11.44 10.6502 11.89 11.2002 11.89H15.7102C15.6002 12.81 15.0002 14.2 13.6702 15.13C12.8202 15.72 11.6902 16.13 10.2002 16.13C10.1302 16.13 10.0702 16.13 10.0002 16.12C7.4502 16.04 5.2902 14.33 4.5102 11.98C4.3002 11.35 4.1802 10.69 4.1802 10C4.1802 9.31 4.3002 8.63999 4.5002 8.01999C4.5602 7.83999 4.6302 7.66001 4.7102 7.48001C5.6302 5.41001 7.6402 3.95 10.0002 3.88C10.0602 3.87 10.1302 3.87 10.2002 3.87C11.6302 3.87 12.7002 4.33999 13.4502 4.85999C13.8402 5.12999 14.3602 5.06999 14.7002 4.73999L16.0902 3.38C16.5302 2.95 16.4902 2.21999 15.9902 1.85999C14.4002 0.689985 12.4602 0 10.2002 0C10.1302 0 10.0702 9.76585e-06 10.0002 0.0100098C6.1702 0.0800098 2.8802 2.30001 1.2702 5.51001C0.590195 6.87001 0.200195 8.39 0.200195 10C0.200195 11.61 0.590195 13.13 1.2702 14.49H1.2802C2.8902 17.7 6.1802 19.92 10.0002 19.99C10.0702 20 10.1302 20 10.2002 20C12.9002 20 15.1702 19.11 16.8202 17.58C18.7102 15.83 19.8002 13.27 19.8002 10.22C19.8002 9.79 19.7802 9.42001 19.7402 9.07001Z" fill="#0C68F4"/>
</svg>
