<svg width="48" height="48" viewBox="0 0 48 48" fill="none" xmlns="http://www.w3.org/2000/svg">
<rect width="48" height="48" rx="24" fill="#78ABF9"/>
<path d="M22.8267 32.3334C22.5734 32.3334 22.3201 32.24 22.1201 32.04L20.1201 30.04C19.7334 29.6534 19.7334 29.0134 20.1201 28.6267C20.5067 28.24 21.1467 28.24 21.5334 28.6267L22.8534 29.9467L26.4801 26.6C26.8801 26.2267 27.5201 26.2534 27.8934 26.6534C28.2667 27.0534 28.2401 27.6934 27.8401 28.0667L23.5067 32.0667C23.3201 32.24 23.0801 32.3334 22.8267 32.3334Z" fill="white"/>
<path d="M14.9205 16.5067C14.6672 16.5067 14.4005 16.4 14.2138 16.2134C13.8272 15.8267 13.8272 15.1867 14.2138 14.8L19.0538 9.96004C19.4405 9.57338 20.0805 9.57338 20.4672 9.96004C20.8538 10.3467 20.8538 10.9867 20.4672 11.3734L15.6272 16.2134C15.4272 16.4 15.1738 16.5067 14.9205 16.5067Z" fill="white"/>
<path d="M33.0808 16.5067C32.8275 16.5067 32.5741 16.4134 32.3741 16.2134L27.5341 11.3734C27.1475 10.9867 27.1475 10.3467 27.5341 9.96004C27.9208 9.57338 28.5608 9.57338 28.9475 9.96004L33.7875 14.8C34.1741 15.1867 34.1741 15.8267 33.7875 16.2134C33.6008 16.4 33.3341 16.5067 33.0808 16.5067Z" fill="white"/>
<path d="M34.946 22.1334C34.8527 22.1334 34.7593 22.1334 34.666 22.1334H34.3594H13.3327C12.3993 22.1467 11.3327 22.1467 10.5593 21.3734C9.94602 20.7734 9.66602 19.84 9.66602 18.4667C9.66602 14.8 12.346 14.8 13.626 14.8H34.3727C35.6527 14.8 38.3327 14.8 38.3327 18.4667C38.3327 19.8534 38.0527 20.7734 37.4393 21.3734C36.746 22.0667 35.8127 22.1334 34.946 22.1334ZM13.626 20.1334H34.6794C35.2794 20.1467 35.8394 20.1467 36.026 19.96C36.1194 19.8667 36.3193 19.5467 36.3193 18.4667C36.3193 16.96 35.946 16.8 34.3594 16.8H13.626C12.0393 16.8 11.666 16.96 11.666 18.4667C11.666 19.5467 11.8793 19.8667 11.9593 19.96C12.146 20.1334 12.7193 20.1334 13.306 20.1334H13.626Z" fill="white"/>
<path d="M27.8537 38.3334H19.8137C15.0403 38.3334 13.9737 35.4934 13.5603 33.0267L11.6803 21.4934C11.587 20.9467 11.9603 20.44 12.507 20.3467C13.0403 20.2534 13.5603 20.6267 13.6537 21.1734L15.5337 32.6934C15.9203 35.0534 16.7203 36.3334 19.8137 36.3334H27.8537C31.2803 36.3334 31.667 35.1334 32.107 32.8134L34.347 21.1467C34.4537 20.6 34.9737 20.24 35.5203 20.36C36.067 20.4667 36.4137 20.9867 36.307 21.5334L34.067 33.2C33.547 35.9067 32.6803 38.3334 27.8537 38.3334Z" fill="white"/>
</svg>
