<svg width="48" height="48" viewBox="0 0 48 48" fill="none" xmlns="http://www.w3.org/2000/svg">
<rect width="48" height="48" rx="24" fill="#9E9E9E"/>
<path d="M33.3328 38.3333C31.1728 38.3333 29.1328 37.2133 27.9861 35.3733C27.3728 34.4266 27.0261 33.2932 26.9994 32.1332C26.9594 30.1866 27.7861 28.3732 29.2661 27.1466C30.3728 26.2266 31.7595 25.7066 33.1861 25.6666C34.9195 25.6533 36.4794 26.2533 37.7061 27.4266C38.9328 28.5999 39.6261 30.1733 39.6528 31.8666C39.6794 33.0266 39.3861 34.1599 38.7994 35.1599C38.4794 35.7199 38.0661 36.2399 37.5728 36.6799C36.4794 37.7066 35.0128 38.3066 33.4528 38.3333C33.4261 38.3333 33.3861 38.3333 33.3328 38.3333ZM33.3328 27.6666C33.3061 27.6666 33.2661 27.6666 33.2394 27.6666C32.2528 27.6933 31.3194 28.0399 30.5461 28.6799C29.5328 29.5199 28.9728 30.7599 28.9994 32.0933C29.0128 32.8799 29.2528 33.6532 29.6661 34.3066C30.4794 35.6132 31.8928 36.4133 33.4128 36.3333C34.4661 36.3066 35.4661 35.9066 36.2261 35.2C36.5728 34.8933 36.8528 34.5466 37.0661 34.1733C37.4661 33.4799 37.6661 32.7066 37.6528 31.9199C37.6261 30.7599 37.1594 29.6799 36.3194 28.8799C35.5194 28.0932 34.4528 27.6666 33.3328 27.6666Z" fill="white"/>
<path d="M32.6005 34.3332C32.3472 34.3332 32.1071 34.2399 31.9071 34.0532L30.5605 32.7733C30.1605 32.3866 30.1471 31.7599 30.5338 31.3599C30.9205 30.9599 31.5471 30.9466 31.9471 31.3332L32.6005 31.9599L34.6938 29.9333C35.0938 29.5466 35.7205 29.5599 36.1071 29.9599C36.4938 30.3599 36.4805 30.9866 36.0805 31.3733L33.2938 34.0666C33.0938 34.2399 32.8405 34.3332 32.6005 34.3332Z" fill="white"/>
<path d="M24.0004 25.7332C23.8271 25.7332 23.6538 25.6932 23.4938 25.5999L11.7205 18.7866C11.2405 18.5066 11.0804 17.8932 11.3604 17.4132C11.6404 16.9332 12.2538 16.7732 12.7205 17.0532L23.9871 23.5732L35.1871 17.0932C35.6671 16.8132 36.2804 16.9866 36.5471 17.4532C36.8271 17.9332 36.6538 18.5465 36.1871 18.8265L24.4938 25.5999C24.3471 25.6799 24.1738 25.7332 24.0004 25.7332Z" fill="white"/>
<path d="M24 37.8131C23.4533 37.8131 23 37.3597 23 36.8131V24.7197C23 24.1731 23.4533 23.7197 24 23.7197C24.5467 23.7197 25 24.1731 25 24.7197V36.8131C25 37.3597 24.5467 37.8131 24 37.8131Z" fill="white"/>
<path d="M24.0005 38.3332C22.8272 38.3332 21.6538 38.0798 20.7472 37.5598L13.6272 33.6132C11.6938 32.5466 10.1738 29.9732 10.1738 27.7599V20.2132C10.1738 17.9998 11.6938 15.4399 13.6272 14.3599L20.7472 10.4132C22.5605 9.38652 25.4138 9.38652 27.2405 10.4132L34.3605 14.3599C36.2938 15.4266 37.8138 17.9998 37.8138 20.2132V27.7599C37.8138 27.8932 37.8138 27.9998 37.7871 28.1332C37.7205 28.4798 37.4672 28.7732 37.1338 28.8798C36.8005 28.9998 36.4271 28.9199 36.1471 28.6932C34.6138 27.3599 32.2405 27.3065 30.6272 28.5999C29.6005 29.4132 29.0005 30.6532 29.0005 31.9732C29.0005 32.7598 29.2138 33.5332 29.6272 34.1999C29.7338 34.3866 29.8405 34.5332 29.9605 34.6799C30.1605 34.9065 30.2405 35.2132 30.1872 35.5065C30.1338 35.7999 29.9472 36.0532 29.6805 36.1999L27.2405 37.5465C26.3338 38.0798 25.1738 38.3332 24.0005 38.3332ZM24.0005 11.6665C23.1738 11.6665 22.3338 11.8399 21.7338 12.1732L14.6138 16.1199C13.3205 16.8266 12.2005 18.7465 12.2005 20.2132V27.7599C12.2005 29.2265 13.3338 31.1465 14.6138 31.8532L21.7338 35.7998C22.9471 36.4798 25.0671 36.4798 26.2805 35.7998L27.7738 34.9732C27.2805 34.0798 27.0138 33.0398 27.0138 31.9732C27.0138 30.0265 27.8805 28.2266 29.3872 27.0266C31.2005 25.5732 33.7871 25.2665 35.8271 26.1332V20.1865C35.8271 18.7199 34.6938 16.7999 33.4138 16.0932L26.2938 12.1465C25.6672 11.8398 24.8272 11.6665 24.0005 11.6665Z" fill="white"/>
</svg>
