<svg width="56" height="56" viewBox="0 0 56 56" fill="none" xmlns="http://www.w3.org/2000/svg">
<g filter="url(#filter0_d_5197_4336)">
<rect x="4" width="48" height="48" rx="24" fill="#9E9E9E"/>
<path d="M29.3337 27.6666H28.0004C27.4537 27.6666 27.0004 27.2133 27.0004 26.6666C27.0004 26.12 27.4537 25.6666 28.0004 25.6666H29.3337C30.2537 25.6666 31.0004 24.92 31.0004 24V11.6666H20.0004C18.427 11.6666 16.987 12.5199 16.2137 13.8933C15.947 14.3733 15.3337 14.5467 14.8537 14.28C14.3737 14.0133 14.2003 13.4 14.467 12.92C15.587 10.92 17.707 9.66663 20.0004 9.66663H32.0004C32.547 9.66663 33.0004 10.12 33.0004 10.6666V24C33.0004 26.0266 31.3604 27.6666 29.3337 27.6666Z" fill="white"/>
<path d="M37.3327 35.6666H35.9993C35.4527 35.6666 34.9993 35.2133 34.9993 34.6666C34.9993 33.7466 34.2527 33 33.3327 33C32.4127 33 31.666 33.7466 31.666 34.6666C31.666 35.2133 31.2127 35.6666 30.666 35.6666H25.3327C24.786 35.6666 24.3327 35.2133 24.3327 34.6666C24.3327 33.7466 23.586 33 22.666 33C21.746 33 20.9993 33.7466 20.9993 34.6666C20.9993 35.2133 20.546 35.6666 19.9993 35.6666H18.666C15.906 35.6666 13.666 33.4266 13.666 30.6666C13.666 30.12 14.1193 29.6666 14.666 29.6666C15.2127 29.6666 15.666 30.12 15.666 30.6666C15.666 32.32 17.0127 33.6666 18.666 33.6666H19.1326C19.5726 32.1333 20.986 31 22.666 31C24.346 31 25.7594 32.1333 26.1994 33.6666H29.8127C30.2527 32.1333 31.666 31 33.346 31C35.026 31 36.4393 32.1333 36.8793 33.6666H37.3327C38.986 33.6666 40.3327 32.32 40.3327 30.6666V27.6666H37.3327C36.0527 27.6666 34.9993 26.6133 34.9993 25.3333V21.3333C34.9993 20.0533 36.0393 19 37.3327 19L35.906 16.5066C35.6127 15.9866 35.0527 15.6666 34.4527 15.6666H32.9993V24C32.9993 26.0266 31.3593 27.6666 29.3327 27.6666H27.9993C27.4527 27.6666 26.9993 27.2133 26.9993 26.6666C26.9993 26.12 27.4527 25.6666 27.9993 25.6666H29.3327C30.2527 25.6666 30.9993 24.92 30.9993 24V14.6666C30.9993 14.12 31.4527 13.6666 31.9993 13.6666H34.4527C35.7727 13.6666 36.986 14.3733 37.6393 15.52L39.9194 19.5066C40.0927 19.8133 40.0927 20.2 39.9194 20.5066C39.746 20.8133 39.4127 21 39.0527 21H37.3327C37.146 21 36.9993 21.1466 36.9993 21.3333V25.3333C36.9993 25.52 37.146 25.6666 37.3327 25.6666H41.3327C41.8793 25.6666 42.3327 26.12 42.3327 26.6666V30.6666C42.3327 33.4266 40.0927 35.6666 37.3327 35.6666Z" fill="white"/>
<path d="M22.6667 38.3333C20.64 38.3333 19 36.6933 19 34.6667C19 32.64 20.64 31 22.6667 31C24.6933 31 26.3333 32.64 26.3333 34.6667C26.3333 36.6933 24.6933 38.3333 22.6667 38.3333ZM22.6667 33C21.7467 33 21 33.7467 21 34.6667C21 35.5867 21.7467 36.3333 22.6667 36.3333C23.5867 36.3333 24.3333 35.5867 24.3333 34.6667C24.3333 33.7467 23.5867 33 22.6667 33Z" fill="white"/>
<path d="M33.3327 38.3333C31.306 38.3333 29.666 36.6933 29.666 34.6667C29.666 32.64 31.306 31 33.3327 31C35.3593 31 36.9993 32.64 36.9993 34.6667C36.9993 36.6933 35.3593 38.3333 33.3327 38.3333ZM33.3327 33C32.4127 33 31.666 33.7467 31.666 34.6667C31.666 35.5867 32.4127 36.3333 33.3327 36.3333C34.2527 36.3333 34.9993 35.5867 34.9993 34.6667C34.9993 33.7467 34.2527 33 33.3327 33Z" fill="white"/>
<path d="M41.3333 27.6667H37.3333C36.0533 27.6667 35 26.6133 35 25.3333V21.3333C35 20.0533 36.0533 19 37.3333 19H39.0533C39.4133 19 39.7467 19.1867 39.92 19.5067L42.2 23.5067C42.28 23.6533 42.3333 23.8267 42.3333 24V26.6667C42.3333 27.2133 41.88 27.6667 41.3333 27.6667ZM37.3333 21C37.1467 21 37 21.1467 37 21.3333V25.3333C37 25.52 37.1467 25.6667 37.3333 25.6667H40.3333V24.2667L38.4666 21H37.3333Z" fill="white"/>
<path d="M22.666 19.6666H14.666C14.1193 19.6666 13.666 19.2133 13.666 18.6666C13.666 18.12 14.1193 17.6666 14.666 17.6666H22.666C23.2127 17.6666 23.666 18.12 23.666 18.6666C23.666 19.2133 23.2127 19.6666 22.666 19.6666Z" fill="white"/>
<path d="M19.9993 23.6666H14.666C14.1193 23.6666 13.666 23.2133 13.666 22.6666C13.666 22.12 14.1193 21.6666 14.666 21.6666H19.9993C20.546 21.6666 20.9993 22.12 20.9993 22.6666C20.9993 23.2133 20.546 23.6666 19.9993 23.6666Z" fill="white"/>
<path d="M17.3327 27.6666H14.666C14.1193 27.6666 13.666 27.2133 13.666 26.6666C13.666 26.12 14.1193 25.6666 14.666 25.6666H17.3327C17.8793 25.6666 18.3327 26.12 18.3327 26.6666C18.3327 27.2133 17.8793 27.6666 17.3327 27.6666Z" fill="white"/>
</g>
<defs>
<filter id="filter0_d_5197_4336" x="0" y="0" width="56" height="56" filterUnits="userSpaceOnUse" color-interpolation-filters="sRGB">
<feFlood flood-opacity="0" result="BackgroundImageFix"/>
<feColorMatrix in="SourceAlpha" type="matrix" values="0 0 0 0 0 0 0 0 0 0 0 0 0 0 0 0 0 0 127 0" result="hardAlpha"/>
<feOffset dy="4"/>
<feGaussianBlur stdDeviation="2"/>
<feComposite in2="hardAlpha" operator="out"/>
<feColorMatrix type="matrix" values="0 0 0 0 0 0 0 0 0 0 0 0 0 0 0 0 0 0 0.25 0"/>
<feBlend mode="normal" in2="BackgroundImageFix" result="effect1_dropShadow_5197_4336"/>
<feBlend mode="normal" in="SourceGraphic" in2="effect1_dropShadow_5197_4336" result="shape"/>
</filter>
</defs>
</svg>
