<svg width="49" height="16" viewBox="0 0 49 16" fill="none" xmlns="http://www.w3.org/2000/svg">
<path d="M46.7391 14.0434H43.8454V15.3333H46.6328C47.811 15.3333 48.5625 14.5132 48.5625 13.3412C48.5625 12.1692 47.9188 11.5833 46.8469 11.5833H45.5595C45.2391 11.5833 45.025 11.3492 45.025 10.9973C45.025 10.6453 45.2391 10.4113 45.561 10.4113H48.0266L48.5625 9.12145H45.6672C44.4891 9.12145 43.7391 9.9415 43.7391 10.9973C43.7391 12.1692 44.3828 12.7552 45.4532 12.7552H46.7406C47.061 12.7552 47.2751 12.9893 47.2751 13.3412C47.3828 13.8094 47.1688 14.0434 46.7391 14.0434ZM41.4875 14.0434H38.5938V15.3333H41.3812C42.5594 15.3333 43.3094 14.5132 43.3094 13.3412C43.3094 12.1692 42.6657 11.5833 41.5953 11.5833H40.3079C39.9875 11.5833 39.7734 11.3492 39.7734 10.9973C39.7734 10.6453 39.9875 10.4113 40.3094 10.4113H42.7735L43.3094 9.12145H40.4157C39.2375 9.12145 38.4875 9.9415 38.4875 10.9973C38.4875 12.1692 39.1312 12.7552 40.2016 12.7552H41.489C41.8094 12.7552 42.0235 12.9893 42.0235 13.3412C42.1313 13.8094 41.8094 14.0434 41.4875 14.0434ZM37.736 10.2951V9.00523H33.2344V15.2154H37.736V13.9272H34.5219V12.6374H37.6312V11.3492H34.5219V10.1772H37.736V10.2951ZM30.4484 10.2951C30.9844 10.2951 31.1985 10.6453 31.1985 10.9973C31.1985 11.3492 30.9844 11.7011 30.4484 11.7011H28.8406V10.1772L30.4484 10.2951ZM28.8406 12.9893H29.4844L31.1985 15.2154H32.8063L30.8766 12.8714C31.8422 12.6374 32.3781 11.9352 32.3781 10.9973C32.3781 9.82529 31.6266 9.00523 30.4469 9.00523H27.4469V15.2154H28.7343L28.8406 12.9893ZM25.4109 11.1135C25.4109 11.5833 25.1969 11.9352 24.6609 11.9352H22.9453V10.2934H24.5531C25.0891 10.2934 25.4109 10.6453 25.4109 11.1135ZM21.6594 9.00523V15.2154H22.9468V13.1055H24.6609C25.8391 13.1055 26.6969 12.2871 26.6969 10.9973C26.6969 9.82529 25.9469 8.88738 24.7672 8.88738L21.6594 9.00523ZM19.7297 15.2154H21.3375L19.0875 12.0514L21.3375 9.00523H19.7312L18.339 10.9973L16.9452 9.00523H15.3374L17.589 12.0514L15.3374 15.0992H16.9452L18.3375 13.1072L19.7297 15.2154ZM14.9078 10.2934V9.00523H10.4047V15.2154H14.9063V13.9272H11.6922V12.6374H14.8V11.3492H11.6922V10.1772H14.9078V10.2934ZM40.9516 2.79342L43.2031 6.54342H44.8109V0.333252H43.5235V4.43354L43.2031 3.84755L41.1672 0.333252H39.4516V6.54342H40.739V2.32529L40.9516 2.79342ZM35.3782 2.67721L35.8078 1.38738L36.236 2.67721L36.7719 4.08325H34.8422L35.3782 2.67721ZM37.6297 6.54342H39.0219L36.5578 0.333252H34.8422L32.3781 6.54342H33.7704L34.3063 5.25523H37.0938L37.6297 6.54342ZM31.6266 6.54342L32.1625 5.25523H31.8422C30.8766 5.25523 30.3407 4.55139 30.3407 3.49726V3.37941C30.3407 2.32529 30.8766 1.62145 31.8422 1.62145H33.2344V0.333252H31.7344C30.0203 0.333252 29.0547 1.62145 29.0547 3.37941V3.49726C29.0547 5.37145 30.0203 6.54342 31.6266 6.54342ZM26.8047 6.54342H28.0906V0.449468H26.8032L26.8047 6.54342ZM24.0172 1.62145C24.5531 1.62145 24.7672 1.97337 24.7672 2.32529C24.7672 2.67721 24.5531 3.02913 24.0187 3.02913H22.4094V1.50359L24.0172 1.62145ZM22.4109 4.31896H23.0546L24.7687 6.54506H26.3765L24.4469 4.19947C25.4109 3.9654 25.9469 3.2632 25.9469 2.32529C25.9469 1.15331 25.1969 0.333252 24.0172 0.333252H21.0187V6.54342H22.3046L22.4109 4.31896ZM20.0531 1.62308V0.334889H15.5515V6.54506H20.0531V5.25687H16.8375V3.96704H19.9468V2.67884H16.8375V1.50359H20.0531V1.61981V1.62308ZM10.2999 6.54506H11.4796L13.0859 1.50687V6.54506H14.3733V0.333252H12.2296L10.9422 4.55139L9.65621 0.333252H7.51096V6.54342H8.79841V1.50523L10.2984 6.54342L10.2999 6.54506ZM3.33126 2.67721L3.7609 1.38738L4.18906 2.67721L4.72499 4.08325H2.79532L3.33126 2.67721ZM5.58279 6.54342H6.97503L4.51092 0.333252H2.90311L0.4375 6.54342H1.82974L2.36717 5.25523H5.15314L5.58279 6.54342Z" fill="#2F6DC9"/>
</svg>
