<svg width="55" height="40" viewBox="0 0 55 40" fill="none" xmlns="http://www.w3.org/2000/svg">
<g clip-path="url(#clip0_3385_60177)">
<path d="M12.2417 14.3534C11.8694 14.0034 11.4232 13.736 10.9339 13.5695C10.4447 13.4029 9.92397 13.3413 9.40778 13.3889H5.65421C5.52302 13.3913 5.39686 13.4381 5.29749 13.5212C5.19811 13.6043 5.13176 13.7184 5.10994 13.8438L3.4396 23.453C3.43429 23.499 3.43909 23.5456 3.45367 23.5896C3.46826 23.6337 3.4923 23.6741 3.52422 23.7085C3.55613 23.7429 3.5952 23.7703 3.63884 23.7891C3.68247 23.8078 3.72971 23.8173 3.77742 23.8169H5.65421C5.76647 23.8122 5.87475 23.7751 5.96504 23.7103C6.05535 23.6453 6.12357 23.5558 6.16094 23.453L6.57383 20.8323C6.58778 20.7069 6.64922 20.5908 6.74631 20.5069C6.84339 20.4228 6.96918 20.3766 7.09933 20.3773H8.31924C8.85886 20.4377 9.40553 20.39 9.92525 20.2368C10.445 20.0836 10.9267 19.8284 11.3403 19.487C11.754 19.1456 12.0908 18.7254 12.3298 18.2524C12.5689 17.7794 12.705 17.2638 12.7297 16.7375C12.8354 16.3298 12.8465 15.9045 12.7621 15.4923C12.6777 15.08 12.5 14.691 12.2417 14.3534ZM9.85821 16.8831C9.65176 18.2298 8.58199 18.2298 7.56853 18.2298H6.98672L7.38085 15.7002C7.39369 15.6261 7.43239 15.5585 7.49047 15.5088C7.54856 15.4591 7.6225 15.4303 7.6999 15.4272H7.96265C8.65706 15.4272 9.33271 15.4272 9.65176 15.8093C9.76859 15.9611 9.84796 16.1368 9.88375 16.3229C9.91954 16.5091 9.91079 16.7007 9.85821 16.8831Z" fill="#253B80"/>
<path d="M21.0065 16.8275H19.1297C19.0533 16.8315 18.98 16.8581 18.9197 16.9038C18.8593 16.9493 18.8146 17.0115 18.7919 17.0823V17.6101L18.6605 17.4099C18.3764 17.1327 18.0312 16.9214 17.651 16.7922C17.2706 16.663 16.865 16.6189 16.4647 16.6637C15.4379 16.6868 14.4539 17.0672 13.6925 17.7355C12.931 18.4037 12.4428 19.3151 12.3169 20.3035C12.222 20.7889 12.2348 21.2883 12.3546 21.7684C12.4743 22.2485 12.6982 22.6984 13.0114 23.088C13.3049 23.4032 13.669 23.6489 14.0755 23.8067C14.4822 23.9645 14.9207 24.0298 15.3574 23.998C15.8332 24.0029 16.3052 23.9135 16.7441 23.7352C17.1829 23.5566 17.5797 23.2931 17.9098 22.9606V23.4884C17.9044 23.5725 17.9327 23.6553 17.9885 23.7195C18.0444 23.7839 18.1238 23.8251 18.2101 23.8342H19.8804C20.0109 23.84 20.1389 23.7985 20.2395 23.7177C20.3401 23.6371 20.4061 23.5228 20.4247 23.3974L21.4194 17.1915C21.4404 17.1369 21.4442 17.0776 21.4301 17.0208C21.416 16.9642 21.3847 16.9129 21.3402 16.8737C21.2957 16.8346 21.2402 16.8091 21.1807 16.8009C21.1212 16.7927 21.0604 16.802 21.0065 16.8275ZM16.3145 22.0871C16.085 22.0994 15.8557 22.0634 15.6419 21.9819C15.428 21.9002 15.235 21.7746 15.0759 21.6139C14.9387 21.4292 14.8415 21.2195 14.7898 20.9975C14.7382 20.7754 14.7334 20.5456 14.7756 20.3217C14.8349 19.8245 15.0792 19.3654 15.4627 19.0303C15.8463 18.6953 16.3425 18.5075 16.8588 18.5018C17.0914 18.4916 17.3233 18.532 17.5378 18.6203C17.7522 18.7084 17.9434 18.8422 18.0975 19.0114C18.251 19.1841 18.3599 19.3896 18.4154 19.6111C18.471 19.8325 18.4714 20.0637 18.4166 20.2853C18.3604 20.7856 18.114 21.2475 17.7251 21.5808C17.3363 21.914 16.8333 22.0945 16.3145 22.0871Z" fill="#253B80"/>
<path d="M30.8782 16.8275H29.0014C28.9119 16.8265 28.8233 16.8477 28.7445 16.8891C28.6656 16.9306 28.599 16.9908 28.551 17.0641L25.9798 20.704L24.8912 17.1551C24.856 17.0461 24.7863 16.9506 24.6919 16.8821C24.5977 16.8135 24.4836 16.7753 24.3657 16.773H22.489C22.4373 16.7728 22.3863 16.7846 22.3403 16.8077C22.2943 16.8308 22.2549 16.8645 22.2255 16.9056C22.1958 16.9469 22.177 16.9944 22.1707 17.0443C22.1643 17.094 22.1705 17.1446 22.1887 17.1915L24.2344 23.0881L22.3576 25.7451C22.3229 25.7917 22.302 25.8467 22.2975 25.904C22.293 25.9612 22.3052 26.0187 22.3324 26.0696C22.3596 26.1206 22.4011 26.1633 22.452 26.1928C22.5028 26.2223 22.5612 26.2374 22.6203 26.2365H24.4971C24.5853 26.2414 24.6733 26.2238 24.7524 26.1855C24.8314 26.1471 24.8987 26.0895 24.9475 26.0181L31.1409 17.2643C31.1623 17.2194 31.1721 17.1699 31.1695 17.1204C31.1668 17.0709 31.1522 17.0228 31.1265 16.9799C31.1006 16.9371 31.0647 16.9009 31.0216 16.8745C30.9782 16.8479 30.9292 16.8319 30.8782 16.8275Z" fill="#253B80"/>
<path d="M39.887 14.3527C39.5139 14.0038 39.0676 13.7369 38.5785 13.5705C38.0894 13.404 37.5692 13.3418 37.0531 13.3882H33.1681C33.0399 13.3878 32.9164 13.4346 32.8224 13.519C32.7284 13.6034 32.6708 13.7192 32.6614 13.8431L31.0661 23.4522C31.0607 23.4983 31.0656 23.5449 31.0802 23.5889C31.0947 23.6329 31.1189 23.6735 31.1508 23.7079C31.1827 23.7421 31.2217 23.7696 31.2653 23.7884C31.309 23.8071 31.3561 23.8166 31.4039 23.8162H33.3933C33.4834 23.8124 33.569 23.7771 33.6345 23.7168C33.7 23.6568 33.7409 23.5758 33.7499 23.4886L34.2004 20.7406C34.218 20.6166 34.2807 20.5029 34.377 20.4195C34.4731 20.3362 34.5967 20.2888 34.7259 20.2856H35.9645C36.5032 20.3407 37.0476 20.289 37.5651 20.1338C38.0825 19.9786 38.562 19.723 38.9743 19.3827C39.3869 19.0422 39.7237 18.6242 39.9645 18.1537C40.2051 17.6833 40.3448 17.1702 40.375 16.6457C40.4583 16.2516 40.4579 15.8448 40.374 15.4506C40.2902 15.0564 40.1244 14.6828 39.887 14.3527ZM37.4847 16.9369C37.2971 18.2837 36.2273 18.2837 35.1951 18.2837H34.6133L35.0261 15.7541C35.0284 15.7158 35.0387 15.6783 35.056 15.6439C35.0733 15.6095 35.0975 15.5787 35.1271 15.5533C35.1568 15.5279 35.1913 15.5085 35.2287 15.4961C35.2662 15.4837 35.3056 15.4786 35.3452 15.4811H35.6267C36.3211 15.4811 36.978 15.4811 37.3158 15.8633C37.4179 16.0113 37.4859 16.1791 37.515 16.3549C37.5442 16.5309 37.5339 16.7107 37.4847 16.8823V16.9369Z" fill="#179BD7"/>
<path d="M48.6326 16.8284H46.7558C46.6777 16.8264 46.6015 16.8508 46.5399 16.8972C46.4784 16.9438 46.4352 17.0093 46.418 17.0832V17.6109L46.2866 17.4107C46.0069 17.1327 45.6654 16.9206 45.2878 16.7912C44.9101 16.6618 44.507 16.6185 44.1095 16.6646C43.0827 16.6877 42.0987 17.0681 41.3373 17.7361C40.5759 18.4044 40.0876 19.316 39.9618 20.3044C39.8565 20.7894 39.8642 21.291 39.9845 21.7727C40.1046 22.2544 40.334 22.704 40.6562 23.0889C40.9451 23.4046 41.3056 23.6512 41.7095 23.8092C42.1132 23.967 42.5493 24.032 42.9834 23.9988C43.462 24.003 43.9365 23.9133 44.3783 23.7349C44.8202 23.5568 45.2204 23.2936 45.5546 22.9615V23.4893C45.5492 23.5328 45.5535 23.577 45.5672 23.6188C45.5807 23.6607 45.6034 23.6993 45.6336 23.7319C45.6639 23.7646 45.7008 23.7906 45.7421 23.8085C45.7836 23.8263 45.8285 23.8352 45.8737 23.835H47.544C47.6713 23.8363 47.7948 23.7926 47.8914 23.7124C47.9881 23.6319 48.0513 23.5204 48.0695 23.3983L48.9891 17.1924C48.9985 17.1441 48.9959 17.0944 48.9816 17.0475C48.9674 17.0004 48.9417 16.9574 48.9069 16.9217C48.872 16.8862 48.8291 16.8593 48.7814 16.8429C48.7335 16.8267 48.6827 16.8216 48.6326 16.8284ZM43.9594 22.0879C43.7268 22.1016 43.4943 22.0664 43.2772 21.9847C43.0602 21.903 42.8639 21.7769 42.7019 21.6147C42.564 21.4306 42.4677 21.2204 42.4191 20.9978C42.3707 20.775 42.371 20.545 42.4204 20.3226C42.4714 19.8254 42.7107 19.3641 43.0919 19.0279C43.4733 18.6918 43.9695 18.5047 44.4849 18.5027C44.7238 18.4823 44.9642 18.5183 45.1855 18.6079C45.4069 18.6974 45.6025 18.8377 45.7556 19.0166C45.9088 19.1955 46.015 19.4079 46.0649 19.6354C46.1149 19.8627 46.1072 20.0986 46.0426 20.3226C45.9863 20.8163 45.741 21.2717 45.3553 21.5985C44.9696 21.9254 44.4714 22.0999 43.9594 22.0879Z" fill="#179BD7"/>
<path d="M52.9303 13.334H51.0535C50.9767 13.3287 50.9009 13.3523 50.8416 13.3997C50.7821 13.4471 50.7438 13.5148 50.7344 13.5888L49.233 23.4527C49.2247 23.4977 49.2268 23.5439 49.239 23.5879C49.2512 23.632 49.2733 23.6729 49.3039 23.7077C49.3343 23.7425 49.3724 23.7703 49.4154 23.7892C49.4582 23.808 49.5049 23.8174 49.552 23.8167H51.1473C51.2746 23.818 51.3981 23.7743 51.4947 23.694C51.5914 23.6136 51.6546 23.502 51.6728 23.3799L53.2493 13.6798C53.2546 13.6362 53.2503 13.592 53.2367 13.5502C53.223 13.5083 53.2003 13.4698 53.1703 13.437C53.1401 13.4043 53.1031 13.3782 53.0616 13.3605C53.0204 13.3427 52.9755 13.3337 52.9303 13.334Z" fill="#179BD7"/>
</g>
<defs>
<clipPath id="clip0_3385_60177">
<rect width="55" height="40" rx="4" fill="white"/>
</clipPath>
</defs>
</svg>
