<svg width="122" height="29" viewBox="0 0 122 29" fill="none" xmlns="http://www.w3.org/2000/svg">
<path d="M1.05682 7.8125V5.54545H14.5653V7.8125H9.11932V23H6.49432V7.8125H1.05682ZM21.0895 23.2642C19.7997 23.2642 18.6889 22.9886 17.7571 22.4375C16.831 21.8807 16.1151 21.0994 15.6094 20.0938C15.1094 19.0824 14.8594 17.8977 14.8594 16.5398C14.8594 15.1989 15.1094 14.017 15.6094 12.9943C16.1151 11.9716 16.8196 11.1733 17.723 10.5994C18.6321 10.0256 19.6946 9.73864 20.9105 9.73864C21.6491 9.73864 22.3651 9.8608 23.0582 10.1051C23.7514 10.3494 24.3736 10.733 24.9247 11.2557C25.4759 11.7784 25.9105 12.4574 26.2287 13.2926C26.5469 14.1222 26.706 15.1307 26.706 16.3182V17.2216H16.2997V15.3125H24.2088C24.2088 14.642 24.0724 14.0483 23.7997 13.5312C23.527 13.0085 23.1435 12.5966 22.6491 12.2955C22.1605 11.9943 21.5866 11.8438 20.9276 11.8438C20.2116 11.8438 19.5866 12.0199 19.0526 12.3722C18.5241 12.7187 18.1151 13.1733 17.8253 13.7358C17.5412 14.2926 17.3991 14.8977 17.3991 15.5511V17.0426C17.3991 17.9176 17.5526 18.6619 17.8594 19.2756C18.1719 19.8892 18.6065 20.358 19.1634 20.6818C19.7202 21 20.3707 21.1591 21.1151 21.1591C21.598 21.1591 22.0384 21.0909 22.4361 20.9545C22.8338 20.8125 23.1776 20.6023 23.4673 20.3239C23.7571 20.0455 23.9787 19.7017 24.1321 19.2926L26.544 19.7273C26.3509 20.4375 26.0043 21.0597 25.5043 21.5938C25.0099 22.1222 24.3878 22.5341 23.6378 22.8295C22.8935 23.1193 22.044 23.2642 21.0895 23.2642ZM35.0476 23.2642C33.7805 23.2642 32.6896 22.9773 31.7749 22.4034C30.8658 21.8239 30.1669 21.0256 29.6783 20.0085C29.1896 18.9915 28.9453 17.8267 28.9453 16.5142C28.9453 15.1847 29.1953 14.0114 29.6953 12.9943C30.1953 11.9716 30.8999 11.1733 31.8089 10.5994C32.718 10.0256 33.7891 9.73864 35.022 9.73864C36.0163 9.73864 36.9027 9.9233 37.6811 10.2926C38.4595 10.6562 39.0874 11.1676 39.5646 11.8267C40.0476 12.4858 40.3345 13.2557 40.4254 14.1364H37.9453C37.8089 13.5227 37.4964 12.9943 37.0078 12.5511C36.5249 12.108 35.8771 11.8864 35.0646 11.8864C34.3544 11.8864 33.7322 12.0739 33.1982 12.4489C32.6697 12.8182 32.2578 13.3466 31.9624 14.0341C31.6669 14.7159 31.5192 15.5227 31.5192 16.4545C31.5192 17.4091 31.6641 18.233 31.9538 18.9261C32.2436 19.6193 32.6527 20.1562 33.1811 20.5369C33.7152 20.9176 34.343 21.108 35.0646 21.108C35.5476 21.108 35.9851 21.0199 36.3771 20.8438C36.7749 20.6619 37.1072 20.4034 37.3743 20.0682C37.647 19.733 37.8374 19.3295 37.9453 18.858H40.4254C40.3345 19.7045 40.0589 20.4602 39.5987 21.125C39.1385 21.7898 38.522 22.3125 37.7493 22.6932C36.9822 23.0739 36.0817 23.2642 35.0476 23.2642ZM45.6989 15.2273V23H43.1506V5.54545H45.6648V12.0398H45.8267C46.1335 11.3352 46.6023 10.7756 47.233 10.3608C47.8636 9.94602 48.6875 9.73864 49.7045 9.73864C50.6023 9.73864 51.3864 9.9233 52.0568 10.2926C52.733 10.6619 53.2557 11.2131 53.625 11.946C54 12.6733 54.1875 13.5824 54.1875 14.6733V23H51.6392V14.9801C51.6392 14.0199 51.392 13.2756 50.8977 12.7472C50.4034 12.2131 49.7159 11.946 48.8352 11.946C48.233 11.946 47.6932 12.0739 47.2159 12.3295C46.7443 12.5852 46.3722 12.9602 46.0994 13.4545C45.8324 13.9432 45.6989 14.5341 45.6989 15.2273ZM64.1442 23V5.54545H66.7777V13.1307H75.4794V5.54545H78.1214V23H75.4794V15.3892H66.7777V23H64.1442ZM87.3942 23.2642C86.1044 23.2642 84.9936 22.9886 84.0618 22.4375C83.1357 21.8807 82.4197 21.0994 81.9141 20.0938C81.4141 19.0824 81.1641 17.8977 81.1641 16.5398C81.1641 15.1989 81.4141 14.017 81.9141 12.9943C82.4197 11.9716 83.1243 11.1733 84.0277 10.5994C84.9368 10.0256 85.9993 9.73864 87.2152 9.73864C87.9538 9.73864 88.6697 9.8608 89.3629 10.1051C90.0561 10.3494 90.6783 10.733 91.2294 11.2557C91.7805 11.7784 92.2152 12.4574 92.5334 13.2926C92.8516 14.1222 93.0107 15.1307 93.0107 16.3182V17.2216H82.6044V15.3125H90.5135C90.5135 14.642 90.3771 14.0483 90.1044 13.5312C89.8317 13.0085 89.4482 12.5966 88.9538 12.2955C88.4652 11.9943 87.8913 11.8438 87.2322 11.8438C86.5163 11.8438 85.8913 12.0199 85.3572 12.3722C84.8288 12.7187 84.4197 13.1733 84.13 13.7358C83.8459 14.2926 83.7038 14.8977 83.7038 15.5511V17.0426C83.7038 17.9176 83.8572 18.6619 84.1641 19.2756C84.4766 19.8892 84.9112 20.358 85.468 20.6818C86.0249 21 86.6754 21.1591 87.4197 21.1591C87.9027 21.1591 88.343 21.0909 88.7408 20.9545C89.1385 20.8125 89.4822 20.6023 89.772 20.3239C90.0618 20.0455 90.2834 19.7017 90.4368 19.2926L92.8487 19.7273C92.6555 20.4375 92.3089 21.0597 91.8089 21.5938C91.3146 22.1222 90.6925 22.5341 89.9425 22.8295C89.1982 23.1193 88.3487 23.2642 87.3942 23.2642ZM95.8381 23V9.90909H98.3864V23H95.8381ZM97.125 7.8892C96.6818 7.8892 96.3011 7.74148 95.983 7.44602C95.6705 7.14489 95.5142 6.78693 95.5142 6.37216C95.5142 5.9517 95.6705 5.59375 95.983 5.29829C96.3011 4.99716 96.6818 4.84659 97.125 4.84659C97.5682 4.84659 97.946 4.99716 98.2585 5.29829C98.5767 5.59375 98.7358 5.9517 98.7358 6.37216C98.7358 6.78693 98.5767 7.14489 98.2585 7.44602C97.946 7.74148 97.5682 7.8892 97.125 7.8892ZM101.815 23V9.90909H104.261V12.0398H104.423C104.695 11.3182 105.141 10.7557 105.761 10.3523C106.38 9.94318 107.121 9.73864 107.985 9.73864C108.86 9.73864 109.593 9.94318 110.184 10.3523C110.781 10.7614 111.221 11.3239 111.505 12.0398H111.641C111.954 11.3409 112.451 10.7841 113.133 10.3693C113.815 9.94886 114.627 9.73864 115.57 9.73864C116.758 9.73864 117.727 10.1108 118.477 10.8551C119.232 11.5994 119.61 12.7216 119.61 14.2216V23H117.062V14.4602C117.062 13.5739 116.82 12.9318 116.337 12.5341C115.854 12.1364 115.278 11.9375 114.607 11.9375C113.778 11.9375 113.133 12.1932 112.673 12.7045C112.212 13.2102 111.982 13.8608 111.982 14.6562V23H109.442V14.2983C109.442 13.5881 109.221 13.017 108.778 12.5852C108.335 12.1534 107.758 11.9375 107.048 11.9375C106.565 11.9375 106.119 12.0653 105.71 12.321C105.306 12.571 104.979 12.9205 104.729 13.3693C104.485 13.8182 104.363 14.3381 104.363 14.929V23H101.815Z" fill="#0951BE"/>
</svg>
