<svg xmlns="http://www.w3.org/2000/svg" width="20" height="21" fill="none" viewBox="0 0 20 21">
  <path fill="#CBCBCB" d="M14.542 19.458c-.942 0-1.934-.225-2.959-.658-1-.425-2.008-1.008-2.991-1.717a26.017 26.017 0 0 1-2.809-2.391 24.888 24.888 0 0 1-2.391-2.8c-.717-1-1.292-2-1.7-2.967-.434-1.033-.65-2.033-.65-2.975 0-.65.116-1.267.341-1.842A4.451 4.451 0 0 1 2.5 2.492c.642-.634 1.375-.95 2.158-.95.325 0 .659.075.942.208.325.15.6.375.8.675L8.333 5.15c.175.242.309.475.4.708.109.25.167.5.167.742 0 .317-.092.625-.267.917a3.334 3.334 0 0 1-.558.708l-.567.592c.009.025.017.041.025.058.1.175.3.475.684.925.408.467.791.892 1.175 1.283.491.484.9.867 1.283 1.184.475.4.783.6.967.691l-.017.042.608-.6a3.11 3.11 0 0 1 .75-.575c.459-.283 1.042-.333 1.625-.092.217.092.45.217.7.392l2.767 1.967c.308.208.533.475.667.791.125.317.183.609.183.9 0 .4-.092.8-.267 1.175-.175.375-.391.7-.666 1-.475.525-.992.9-1.592 1.142a4.92 4.92 0 0 1-1.858.358ZM4.658 2.792c-.458 0-.883.2-1.291.6-.384.358-.65.75-.817 1.175a3.646 3.646 0 0 0-.258 1.383c0 .775.183 1.617.55 2.483.375.884.9 1.8 1.566 2.717a23.063 23.063 0 0 0 2.259 2.65 23.463 23.463 0 0 0 2.658 2.267 13.58 13.58 0 0 0 2.742 1.575c1.425.608 2.758.75 3.858.291.425-.175.8-.441 1.142-.825a2.7 2.7 0 0 0 .466-.7c.1-.208.15-.425.15-.641a.994.994 0 0 0-.091-.417.63.63 0 0 0-.234-.25l-2.766-1.967a2.382 2.382 0 0 0-.459-.258c-.183-.075-.258-.15-.541.025a1.9 1.9 0 0 0-.484.375l-.633.625a1.188 1.188 0 0 1-1.208.25l-.225-.1c-.342-.183-.742-.467-1.184-.842-.4-.341-.833-.741-1.358-1.258a29.163 29.163 0 0 1-1.242-1.35c-.391-.458-.675-.85-.85-1.175l-.1-.25c-.05-.192-.066-.3-.066-.417 0-.3.108-.566.316-.775l.625-.65c.167-.166.292-.325.375-.466a.534.534 0 0 0 .092-.284.775.775 0 0 0-.067-.266 2.39 2.39 0 0 0-.266-.442L5.383 3.142a.768.768 0 0 0-.308-.259 1.043 1.043 0 0 0-.417-.091Zm6.967 10.216-.133.567.225-.583c-.042-.009-.075 0-.092.016Zm3.792-4.383A.63.63 0 0 1 14.792 8c0-.3-.3-.925-.8-1.458-.492-.525-1.034-.834-1.492-.834a.63.63 0 0 1-.625-.625.63.63 0 0 1 .625-.625c.808 0 1.658.434 2.4 1.225.692.742 1.142 1.65 1.142 2.317a.63.63 0 0 1-.625.625Zm2.916 0A.63.63 0 0 1 17.708 8 5.21 5.21 0 0 0 12.5 2.792a.63.63 0 0 1-.625-.625.63.63 0 0 1 .625-.625c3.558 0 6.458 2.9 6.458 6.458a.63.63 0 0 1-.625.625Z"/>
</svg>
