<svg xmlns="http://www.w3.org/2000/svg" width="20" height="20" fill="none" viewBox="0 0 20 20">
  <path fill="#CBCBCB" d="M10 11.808a3.22 3.22 0 1 1 0-6.442 3.22 3.22 0 1 1 0 6.442Zm0-5.191a1.974 1.974 0 1 0-.002 3.952A1.974 1.974 0 0 0 10 6.617Z"/>
  <path fill="#CBCBCB" d="M10 18.967a4.975 4.975 0 0 1-3.442-1.392C4.1 15.208 1.383 11.433 2.408 6.942c.925-4.075 4.484-5.9 7.592-5.9h.008c3.109 0 6.667 1.825 7.592 5.908 1.017 4.492-1.7 8.258-4.158 10.625A4.976 4.976 0 0 1 10 18.967Zm0-16.675c-2.425 0-5.542 1.291-6.367 4.925-.9 3.925 1.567 7.308 3.8 9.45a3.688 3.688 0 0 0 5.142 0c2.225-2.142 4.692-5.525 3.808-9.45C15.55 3.583 12.425 2.292 10 2.292Z"/>
</svg>
