<svg xmlns="http://www.w3.org/2000/svg" width="20" height="20" fill="none" viewBox="0 0 20 20">
  <path fill="#CBCBCB" d="M10 17.708H5.833c-3.041 0-4.791-1.75-4.791-4.791V7.083c0-3.041 1.75-4.791 4.791-4.791h8.334c3.041 0 4.791 1.75 4.791 4.791v2.5a.63.63 0 0 1-.625.625.63.63 0 0 1-.625-.625v-2.5c0-2.383-1.158-3.541-3.541-3.541H5.833c-2.383 0-3.541 1.158-3.541 3.541v5.834c0 2.383 1.158 3.541 3.541 3.541H10a.63.63 0 0 1 .625.625.63.63 0 0 1-.625.625Z"/>
  <path fill="#CBCBCB" d="M10 10.725c-.7 0-1.409-.217-1.95-.658L5.44 7.983a.623.623 0 0 1-.1-.875.63.63 0 0 1 .875-.1l2.609 2.084c.633.508 1.708.508 2.341 0l2.609-2.084a.616.616 0 0 1 .875.1.615.615 0 0 1-.1.875l-2.609 2.084c-.533.441-1.241.658-1.941.658Zm3.183 7.425c-.316 0-.616-.117-.833-.333a1.185 1.185 0 0 1-.317-1.025l.159-1.125c.041-.292.216-.642.425-.85l2.95-2.95c.4-.4.791-.609 1.216-.65.517-.05 1.034.166 1.517.65.483.483.7.991.65 1.516-.042.417-.258.817-.65 1.217l-2.95 2.95a1.652 1.652 0 0 1-.85.425l-1.125.158c-.067.009-.125.017-.192.017Zm3.742-5.692H16.9c-.117.009-.275.117-.45.292L13.5 15.7a.317.317 0 0 0-.067.142l-.15 1.041 1.042-.15a.463.463 0 0 0 .142-.075l2.95-2.95c.175-.183.283-.333.291-.45.017-.166-.15-.366-.291-.508-.134-.133-.325-.292-.492-.292Z"/>
  <path fill="#CBCBCB" d="M17.433 15.208a.539.539 0 0 1-.166-.025 3.315 3.315 0 0 1-2.284-2.283.633.633 0 0 1 .434-.775.62.62 0 0 1 .766.433 2.055 2.055 0 0 0 1.417 1.417.63.63 0 0 1-.167 1.233Z"/>
</svg>
