<svg width="120" height="120" viewBox="0 0 120 120" fill="none" xmlns="http://www.w3.org/2000/svg">
<path d="M45.8498 77.9C44.8998 77.9 43.9498 77.55 43.1998 76.8C41.7498 75.35 41.7498 72.95 43.1998 71.5L71.4998 43.2C72.9498 41.75 75.3498 41.75 76.7998 43.2C78.2498 44.65 78.2498 47.05 76.7998 48.5L48.4998 76.8C47.7998 77.55 46.7998 77.9 45.8498 77.9Z" fill="#C91433"/>
<path d="M74.1498 77.9C73.1998 77.9 72.2498 77.55 71.4998 76.8L43.1998 48.5C41.7498 47.05 41.7498 44.65 43.1998 43.2C44.6498 41.75 47.0498 41.75 48.4998 43.2L76.7998 71.5C78.2498 72.95 78.2498 75.35 76.7998 76.8C76.0498 77.55 75.0998 77.9 74.1498 77.9Z" fill="#C91433"/>
</svg>
